<mxfile host="Electron" agent="Mozilla/5.0 (Windows NT 10.0; Win64; x64) AppleWebKit/537.36 (KHTML, like Gecko) draw.io/24.7.17 Chrome/128.0.6613.36 Electron/32.0.1 Safari/537.36" version="24.7.17">
  <diagram name="Page-1" id="mf0LAtFKG9nzgOeKAB4r">
    <mxGraphModel dx="1547" dy="1463" grid="1" gridSize="10" guides="1" tooltips="1" connect="1" arrows="1" fold="1" page="1" pageScale="1" pageWidth="1000" pageHeight="1000" math="0" shadow="0">
      <root>
        <mxCell id="0" />
        <mxCell id="1" parent="0" />
        <mxCell id="TqPxdP1eBJTgQADfp5AW-14" value="" style="edgeStyle=orthogonalEdgeStyle;rounded=0;orthogonalLoop=1;jettySize=auto;html=1;strokeWidth=3.1496;" edge="1" parent="1" source="TqPxdP1eBJTgQADfp5AW-1" target="TqPxdP1eBJTgQADfp5AW-13">
          <mxGeometry relative="1" as="geometry" />
        </mxCell>
        <mxCell id="TqPxdP1eBJTgQADfp5AW-1" value="Producer" style="rounded=1;whiteSpace=wrap;html=1;strokeWidth=3.1496;fontStyle=1;fontSize=14;" vertex="1" parent="1">
          <mxGeometry x="80" y="320" width="120" height="60" as="geometry" />
        </mxCell>
        <mxCell id="TqPxdP1eBJTgQADfp5AW-10" value="" style="edgeStyle=orthogonalEdgeStyle;rounded=0;orthogonalLoop=1;jettySize=auto;html=1;strokeWidth=3.1496;" edge="1" parent="1" source="TqPxdP1eBJTgQADfp5AW-2" target="TqPxdP1eBJTgQADfp5AW-8">
          <mxGeometry relative="1" as="geometry" />
        </mxCell>
        <mxCell id="TqPxdP1eBJTgQADfp5AW-2" value="Queue" style="rounded=0;whiteSpace=wrap;html=1;strokeWidth=3.1496;fontStyle=1;fontSize=14;" vertex="1" parent="1">
          <mxGeometry x="400" y="290" width="120" height="50" as="geometry" />
        </mxCell>
        <mxCell id="TqPxdP1eBJTgQADfp5AW-12" value="" style="edgeStyle=orthogonalEdgeStyle;rounded=0;orthogonalLoop=1;jettySize=auto;html=1;strokeWidth=3.1496;" edge="1" parent="1" source="TqPxdP1eBJTgQADfp5AW-3" target="TqPxdP1eBJTgQADfp5AW-9">
          <mxGeometry relative="1" as="geometry" />
        </mxCell>
        <mxCell id="TqPxdP1eBJTgQADfp5AW-3" value="Queue" style="rounded=0;whiteSpace=wrap;html=1;strokeWidth=3.1496;fontStyle=1;fontSize=14;" vertex="1" parent="1">
          <mxGeometry x="400" y="360" width="120" height="50" as="geometry" />
        </mxCell>
        <mxCell id="TqPxdP1eBJTgQADfp5AW-6" value="" style="rounded=1;whiteSpace=wrap;html=1;strokeWidth=3.1496;fontStyle=1;fontSize=14;" vertex="1" parent="1">
          <mxGeometry x="600" y="270" width="120" height="40" as="geometry" />
        </mxCell>
        <mxCell id="TqPxdP1eBJTgQADfp5AW-7" value="Consumers" style="text;html=1;align=center;verticalAlign=middle;whiteSpace=wrap;rounded=0;fontStyle=1;fontSize=14;" vertex="1" parent="1">
          <mxGeometry x="600" y="230" width="120" height="30" as="geometry" />
        </mxCell>
        <mxCell id="TqPxdP1eBJTgQADfp5AW-8" value="" style="rounded=1;whiteSpace=wrap;html=1;strokeWidth=3.1496;fontStyle=1;fontSize=14;" vertex="1" parent="1">
          <mxGeometry x="600" y="330" width="120" height="40" as="geometry" />
        </mxCell>
        <mxCell id="TqPxdP1eBJTgQADfp5AW-9" value="" style="rounded=1;whiteSpace=wrap;html=1;strokeWidth=3.1496;fontStyle=1;fontSize=14;" vertex="1" parent="1">
          <mxGeometry x="600" y="390" width="120" height="40" as="geometry" />
        </mxCell>
        <mxCell id="TqPxdP1eBJTgQADfp5AW-11" value="" style="edgeStyle=orthogonalEdgeStyle;rounded=0;orthogonalLoop=1;jettySize=auto;html=1;strokeWidth=3.1496;entryX=0;entryY=0.5;entryDx=0;entryDy=0;exitX=1;exitY=0.5;exitDx=0;exitDy=0;" edge="1" parent="1" source="TqPxdP1eBJTgQADfp5AW-2" target="TqPxdP1eBJTgQADfp5AW-6">
          <mxGeometry relative="1" as="geometry">
            <mxPoint x="530" y="325" as="sourcePoint" />
            <mxPoint x="570" y="360" as="targetPoint" />
          </mxGeometry>
        </mxCell>
        <mxCell id="TqPxdP1eBJTgQADfp5AW-16" value="" style="edgeStyle=orthogonalEdgeStyle;rounded=0;orthogonalLoop=1;jettySize=auto;html=1;entryX=0;entryY=0.5;entryDx=0;entryDy=0;strokeWidth=3.1496;" edge="1" parent="1" source="TqPxdP1eBJTgQADfp5AW-13" target="TqPxdP1eBJTgQADfp5AW-2">
          <mxGeometry relative="1" as="geometry">
            <mxPoint x="410" y="350" as="targetPoint" />
          </mxGeometry>
        </mxCell>
        <mxCell id="TqPxdP1eBJTgQADfp5AW-13" value="Exchange" style="rounded=0;whiteSpace=wrap;html=1;strokeWidth=3.1496;fontStyle=1;fontSize=14;" vertex="1" parent="1">
          <mxGeometry x="240" y="310" width="90" height="80" as="geometry" />
        </mxCell>
        <mxCell id="TqPxdP1eBJTgQADfp5AW-17" value="" style="edgeStyle=orthogonalEdgeStyle;rounded=0;orthogonalLoop=1;jettySize=auto;html=1;entryX=0;entryY=0.5;entryDx=0;entryDy=0;exitX=1;exitY=0.5;exitDx=0;exitDy=0;strokeWidth=3.1496;" edge="1" parent="1" source="TqPxdP1eBJTgQADfp5AW-13" target="TqPxdP1eBJTgQADfp5AW-3">
          <mxGeometry relative="1" as="geometry">
            <mxPoint x="340" y="360" as="sourcePoint" />
            <mxPoint x="480" y="325" as="targetPoint" />
          </mxGeometry>
        </mxCell>
      </root>
    </mxGraphModel>
  </diagram>
</mxfile>
